<svg xmlns="http://www.w3.org/2000/svg" width="477" height="146" fill="none" viewBox="0 0 477 146">
  <path fill="#2CA01C" d="M30.767 99.535c16.993 0 30.768-13.775 30.768-30.768C61.535 51.775 47.76 38 30.767 38 13.775 38 0 51.775 0 68.767 0 85.76 13.775 99.535 30.767 99.535Z"/>
  <path fill="#fff" d="M20.508 56.8c-6.612 0-11.965 5.361-11.965 11.966 0 6.604 5.353 11.964 11.965 11.964h1.709v-4.444h-1.71a7.525 7.525 0 0 1-7.52-7.52c0-4.15 3.37-7.522 7.52-7.522h4.11v23.247a4.444 4.444 0 0 0 4.443 4.443V56.801h-8.553Zm20.525 23.93c6.611 0 11.965-5.36 11.965-11.965 0-6.604-5.353-11.964-11.965-11.964h-1.709v4.444h1.71c4.15 0 7.52 3.371 7.52 7.521s-3.37 7.522-7.52 7.522h-4.11V53.04a4.444 4.444 0 0 0-4.444-4.443v32.134h8.554v-.002Z"/>
  <path fill="#000" d="M90.755 107h-4.76V94.946h-.08c-1.231 1.9-3.652 3.09-6.305 3.09-5.791 0-9.36-4.601-9.36-10.153 0-5.553 3.808-9.996 9.237-9.996 3.487 0 5.634 1.702 6.584 3.213h.116v-2.66h4.56v28.559h.008V107ZM80.567 94.07c3.487 0 5.592-3.13 5.592-6.105 0-2.974-2.099-6.187-5.592-6.187-3.685 0-5.47 3.132-5.47 6.106-.007 2.974 1.778 6.188 5.47 6.188v-.001Zm31.554 3.412h-4.52v-3.056h-.082c-.833 1.9-3.09 3.61-5.907 3.61-4.957 0-7.022-3.81-7.022-7.692V78.447h4.759v10.55c0 2.264.513 5.073 3.568 5.073 3.056 0 4.444-2.618 4.444-5.155V78.447h4.758v19.035h.002Zm4.781-19.451h4.759v19.035h-4.759V78.031Zm22.55 5.689c-.752-1.074-2.38-1.867-3.925-1.867-3.487 0-5.237 3.131-5.237 6.105 0 2.974 1.785 6.106 5.394 6.106 1.47 0 3.09-.595 4.007-1.702l2.974 3.015c-1.587 1.702-4.206 2.66-7.022 2.66-5.634 0-10.311-3.726-10.311-10.07 0-6.345 4.602-10.073 10.195-10.073 2.776 0 5.668 1.108 7.178 2.974l-3.253 2.851Zm5.603-16.216h4.758v18.952h.117l7.219-8.013h6.106l-8.246 8.608 8.766 10.427h-6.304l-7.535-9.757h-.116v9.757h-4.758V67.504h-.007Zm25.648 0V80.87h.116c.992-1.23 2.893-2.974 6.386-2.974 5.435 0 9.237 4.362 9.237 9.996s-3.569 10.154-9.36 10.154c-2.66 0-5.238-1.23-6.543-3.412h-.082v2.858h-4.519V67.504h4.765Zm5.435 14.276c-3.487 0-5.592 3.213-5.592 6.187s2.098 6.106 5.592 6.106c3.686 0 5.469-3.214 5.469-6.189s-1.783-6.105-5.469-6.105v.001Zm22.721-3.886c5.75 0 10.352 4.007 10.352 9.996 0 5.99-4.602 10.154-10.352 10.154s-10.351-4.164-10.351-10.154c0-5.989 4.601-9.996 10.351-9.996Zm0 16.178c3.767 0 5.511-3.213 5.511-6.189 0-2.975-1.744-6.105-5.511-6.105-3.767 0-5.511 3.132-5.511 6.105 0 2.974 1.744 6.189 5.511 6.189Zm22.777-16.178c5.75 0 10.352 4.007 10.352 9.996 0 5.99-4.602 10.154-10.352 10.154s-10.351-4.164-10.351-10.154c0-5.989 4.601-9.996 10.351-9.996Zm0 16.178c3.768 0 5.511-3.213 5.511-6.189 0-2.975-1.743-6.105-5.511-6.105-3.767 0-5.51 3.132-5.51 6.105-.007 2.974 1.743 6.189 5.51 6.189Zm13.231-26.568h4.759v18.952h.116l7.221-8.013h6.105l-8.245 8.608 8.765 10.427h-6.304l-7.535-9.757h-.116v9.757h-4.759V67.504h-.007Zm31.705 16.016c-.835-1.107-2.421-2.064-4.164-2.064-1.504 0-3.057.555-3.057 2.065 0 1.51 1.471 1.866 4.123 2.495 2.818.677 6.147 1.942 6.147 5.668 0 4.643-3.768 6.345-7.931 6.345-2.933 0-5.989-1.107-7.815-3.131l3.131-2.934c1.033 1.347 2.818 2.38 4.875 2.38 1.388 0 3.057-.555 3.057-2.264 0-1.586-1.471-2.064-4.362-2.735-2.817-.677-5.634-1.825-5.634-5.394 0-4.246 3.808-6.064 7.575-6.064 2.735 0 5.593.95 7.138 2.892l-3.083 2.742ZM122.383 52.46c0 4.826 3.863 8.354 8.772 8.354 4.91 0 8.779-3.52 8.779-8.354V41.377h-4.758v10.516c0 2.604-1.744 4.348-4.034 4.348-2.291 0-4.035-1.744-4.035-4.348V41.377h-4.752l.028 11.083Zm30.265-6.632h5.676V60.43h4.752V45.828h5.667v-4.451h-16.095v4.45Zm-3.076-4.451h-4.752v19.056h4.752V41.377Zm-46.384 4.451h5.675V60.43h4.752V45.828h5.668v-4.451h-16.094v4.45h-.001Zm-24.944-4.451h-4.752v19.056h4.752V41.377Zm22.439 7.973c0-4.826-3.87-8.354-8.779-8.354-4.91 0-8.779 3.521-8.779 8.355v11.083h4.752V49.918c0-2.605 1.743-4.348 4.034-4.348 2.29 0 4.034 1.743 4.034 4.348v10.516h4.752l-.014-11.083Z"/>
</svg>
