<svg xmlns="http://www.w3.org/2000/svg" viewBox="0 0 44 44" fill="none">
  <path fill="#3E4348" d="M36.65 0H7.35A7.35 7.35 0 000 7.35v29.3A7.35 7.35 0 007.35 44h29.3A7.35 7.35 0 0044 36.65V7.35A7.35 7.35 0 0036.65 0z"/>
  <path fill="#FFF" d="M25.53 28.84h-7.06c-.45 0-.82-.37-.82-.83V15.99c0-.46.37-.83.82-.83h7.06c2.4 0 4.35 1.97 4.35 4.4 0 1.17-.45 2.23-1.19 3.02.73.79 1.19 1.86 1.19 3.02 0 2.43-1.95 4.4-4.35 4.4zm0-11.02h-5.41v3.57h5.41c.93 0 1.69-.77 1.69-1.73 0-.96-.76-1.74-1.69-1.74zm0 6.23h-5.41v3.57h5.41c.93 0 1.69-.77 1.69-1.73 0-.96-.76-1.74-1.69-1.74z"/>
</svg>