
        <svg xmlns="http://www.w3.org/2000/svg" xmlns:xlink="http://www.w3.org/1999/xlink" version="1.1" width="3166.6666666666665" height="983.3333333333335" viewBox="0 0 3166.6666666666665 983.3333333333335">
			
			<g transform="scale(8.333333333333334) translate(10, 10)">
				<defs id="SvgjsDefs15227"><linearGradient id="SvgjsLinearGradient15232"><stop id="SvgjsStop15233" stop-color="#7f00ff" offset="0"/><stop id="SvgjsStop15234" stop-color="#e100ff" offset="1"/></linearGradient></defs><g id="SvgjsG15228" featureKey="2ou6gm-0" transform="matrix(1,0,0,1,0,0)" fill="#000">    <title xmlns="http://www.w3.org/2000/svg">C Bundle-09</title>    <g xmlns="http://www.w3.org/2000/svg" id="Page-1" stroke="none" stroke-width="1" fill-rule="evenodd">        <g id="Artboard" transform="translate(-1161.000000, -1103.000000)" fill-rule="nonzero">            <g id="C-Bundle-09" transform="translate(1161.000000, 1103.000000)">                <path d="M82.8688053,76.8749222 C82.6582994,77.0683473 82.4283351,77.2351542 82.2142913,77.4232556 C81.7508247,77.8278512 81.2820511,78.223574 80.799126,78.606875 C80.3427351,78.970656 79.8828064,79.3202408 79.4122639,79.6609528 C78.96118,79.9874684 78.5030202,80.3015623 78.0377846,80.608558 C77.5389388,80.9368483 77.038324,81.2562658 76.5253266,81.5597124 C76.0300187,81.8542863 75.5258661,82.1311149 75.0181755,82.4026197 C74.5281745,82.6634774 74.0381735,82.9207859 73.5375588,83.1603491 C72.9538031,83.4407266 72.3594336,83.6962607 71.7615263,83.946471 C71.3192871,84.1310234 70.8805858,84.3155757 70.4312708,84.4823826 C69.7396088,84.7414657 69.037333,84.9703816 68.3297503,85.1886503 C67.9511936,85.30577 67.5761747,85.4264388 67.1923111,85.5311368 C66.4122012,85.7458564 65.6214776,85.9250851 64.8219092,86.0901174 C64.4822695,86.1593246 64.1461677,86.2356299 63.8047591,86.2959643 C62.9875011,86.4414767 62.1613983,86.5497238 61.3282197,86.6419999 C60.9744284,86.6810398 60.624175,86.7254034 60.2686147,86.7555706 C59.9891195,86.7786396 59.7167002,86.8283268 59.4336671,86.8460722 C58.6270229,86.8975339 57.8239165,86.9223775 57.0243481,86.9223775 C49.0551982,86.9223775 41.5194427,84.4628627 35.1759641,79.9945666 C34.8787793,79.7887198 34.5780567,79.5917456 34.2861789,79.3770261 C33.6811957,78.9245179 33.0992089,78.436519 32.5189911,77.9449709 C31.9600008,77.4782664 31.4063174,77.0097874 30.8720924,76.5093667 C30.5342217,76.1899491 30.2105026,75.8527862 29.8832457,75.5191724 C29.4374686,75.0702133 28.9669261,74.6496469 28.5406075,74.1758443 C28.2699572,73.8741722 28.0435307,73.5476565 27.7834941,73.2406608 C27.7162737,73.1590319 27.6366707,73.0898247 27.5694503,73.0081958 C27.5446849,72.9780286 27.5393781,72.9407632 27.5163816,72.910596 C20.9093284,64.9109619 17.8401885,54.8528594 18.9351727,44.3564451 C20.0425396,33.7677546 25.5669913,24.4141451 33.585672,18.1535619 C33.6086684,18.1358165 33.6316649,18.1180711 33.6528924,18.1003256 C39.0269828,13.9230544 45.5031332,11.121053 52.5595014,10.3083129 C62.0181128,9.1939007 71.446652,11.6818082 79.0991586,17.0941605 C79.1203861,17.1083568 79.1416135,17.1207786 79.1610721,17.1349749 C80.0119402,17.7400937 80.8256603,18.4019977 81.6305356,19.0798727 C81.8781895,19.2874941 82.1364572,19.4791446 82.3788043,19.6938641 C82.5291656,19.8269547 82.6936786,19.9369763 82.840502,20.0718415 C83.5852327,20.7532655 84.6731411,20.7710109 85.3842617,20.1144305 C86.1095339,19.4454283 86.1909059,18.3239179 85.5629263,17.5661886 C76.2759037,6.30139768 62.8583673,0 48.3865326,0 C47.3764583,0 46.3628462,0.0337162929 45.3421581,0.0922761699 C21.2896541,1.54917493 1.85058905,20.8260217 0.129394196,44.9278475 C-0.845300939,58.5758479 3.71153149,71.5779152 12.9560991,81.5437415 C22.0733019,91.36583 34.974303,97 48.3476156,97 C62.8229881,97 76.3979617,90.5761589 85.5912296,79.373477 C86.2050576,78.6246204 86.1183787,77.5155318 85.3931065,76.8465296 L85.3913375,76.8429805 C84.6802169,76.1810764 83.5940775,76.2076946 82.8688053,76.8749222 Z" id="Path"/>                <path d="M32.1867878,27.8132191 C31.9034018,28.1571901 31.9476809,28.6705007 32.2842018,28.9827205 L32.2877441,28.9827205 C32.6065534,29.2808287 33.0936232,29.2667171 33.4389999,28.9703728 C34.6274501,27.892597 35.9115431,26.9241863 37.280652,26.0739605 C37.3479562,26.0316256 37.4134892,25.9892907 37.4825645,25.9487197 C38.0759041,25.5888731 38.6834129,25.2519579 39.305091,24.9379741 C39.4308436,24.8744718 39.554825,24.8092055 39.6805775,24.7457031 C40.2491208,24.4687624 40.8300622,24.216517 41.4216305,23.9801471 C41.6022891,23.907825 41.7811766,23.831975 41.9636063,23.7631808 C42.4967263,23.563854 43.0387021,23.3874586 43.5877626,23.2216469 C43.8392677,23.144033 44.0907728,23.064655 44.3458203,22.9958608 C44.8134072,22.8688561 45.2880789,22.7647829 45.7662928,22.6624735 C46.1205254,22.5866235 46.4729868,22.5090095 46.8307616,22.4472711 C47.1920788,22.3872967 47.5569384,22.3414339 47.9217979,22.2955711 C48.423037,22.2303048 48.924276,22.1720943 49.4290574,22.1350513 C49.5034463,22.1297594 49.5760639,22.1156478 49.6504528,22.1121199 C49.7567225,22.1050641 49.85945,22.1156478 49.9657197,22.1103559 C50.4403914,22.0856606 50.9132918,22.0450896 51.3915058,22.0450896 C51.7545941,22.0450896 52.112369,22.0874245 52.4754574,22.1015362 C52.711022,22.1121199 52.9430444,22.1227036 53.1768378,22.1385792 C53.9809457,22.1932618 54.7761978,22.2849874 55.5661364,22.4102281 C55.7751336,22.4437432 55.9841308,22.4719665 56.1913569,22.5107735 C57.0362015,22.6660014 57.868648,22.8635643 58.6922387,23.0981702 C58.8197624,23.1352132 58.9490573,23.1616725 59.0748099,23.2004795 C63.69046,24.5887112 67.900514,27.1887794 71.1842497,30.8207605 C76.2869697,36.4601213 78.6550143,43.7593628 77.8526776,51.372588 C76.9830366,59.6314204 72.1566181,66.7472106 65.3642089,70.9665885 C65.2065754,71.063606 65.0471707,71.1570955 64.8877661,71.252349 C63.3486256,72.1643132 61.731554,72.936925 60.0170685,73.5278496 C59.9869587,73.5384333 59.9568489,73.552545 59.9267392,73.5631287 C59.173995,73.818902 58.4070815,74.0235207 57.6259987,74.2122638 C57.1300731,74.3339766 56.6270629,74.4257022 56.1222815,74.5191917 C55.5785346,74.6162092 55.0595839,74.7855488 54.5069811,74.8490511 C52.5268211,75.0677814 50.5519746,75.0607256 48.6090091,74.854343 C47.9802463,74.7908406 47.3621105,74.6761836 46.7422035,74.5685824 C46.4783002,74.5209557 46.2108547,74.4997882 45.9487226,74.4451057 C41.3029626,73.4890426 36.9706985,71.291156 33.4354576,68.0966354 C33.2601125,67.9555191 33.0581999,67.8673214 32.8545162,67.8673214 C32.6490613,67.8673214 32.4453776,67.9378796 32.2877441,68.0825238 C31.9547655,68.3859239 31.9211134,68.8815949 32.1850167,69.2290938 C32.2363804,69.2908322 32.2842018,69.3543346 32.3373367,69.416073 C32.9979804,70.2027964 33.7029032,70.9366013 34.4219953,71.6492387 C34.6433906,71.866205 34.8559301,72.097283 35.082639,72.3071935 C35.6316994,72.8205041 36.2161831,73.284424 36.7971245,73.7571636 C37.2257459,74.1028986 37.6384268,74.469801 38.0829887,74.7908406 C38.2264529,74.8949139 38.380544,74.9813477 38.5240082,75.081893 C42.0043431,77.5161495 45.9292398,79.2554081 50.077303,80.1973595 C50.2809867,80.2432223 50.4811281,80.2996688 50.686583,80.3402398 C51.503089,80.5095794 52.3319932,80.6277643 53.1626685,80.7336015 C53.580663,80.7865201 53.9968862,80.8394387 54.4184229,80.8764818 C55.1357439,80.9399841 55.8566071,80.9734992 56.5792415,80.9911388 C57.1495559,81.0034865 57.7216415,81.0034865 58.2972694,80.9876109 C58.9100917,80.9699713 59.5246852,80.9540957 60.132194,80.9029411 C60.381928,80.8817736 60.6281196,80.8500225 60.8760824,80.8235632 C61.6359112,80.7424213 62.3939689,80.6418759 63.1431708,80.5095794 C63.3840489,80.4672445 63.6213847,80.4143258 63.8622628,80.3649351 C64.5884396,80.2185269 65.311074,80.0544792 66.0230814,79.8586803 C66.3100098,79.7793024 66.5916247,79.6911047 66.8750107,79.604671 C67.5144005,79.410636 68.1484767,79.2024895 68.7736972,78.9714115 C69.1279298,78.839115 69.4750777,78.6962347 69.8239967,78.5515905 C70.360659,78.3310962 70.893779,78.1000183 71.4180432,77.8513007 C71.8218683,77.6590298 72.2186088,77.4526472 72.6118069,77.2445006 C73.0687669,77.0028389 73.5221846,76.7558853 73.9667464,76.4930562 C74.3811985,76.2478666 74.788566,75.9903293 75.1906199,75.7292641 C75.6103855,75.4558513 76.0248376,75.1736187 76.432205,74.8808023 C76.8094627,74.6091534 77.1796357,74.3286847 77.5462664,74.0411602 C77.9837436,73.6971892 78.4141362,73.3408705 78.8339017,72.9722041 C85.103818,67.500419 89.2802198,59.7002146 89.9125249,50.9263077 C90.5713974,41.7713867 87.4913454,33.0468704 81.2444543,26.3632489 C80.512964,25.5800534 79.7407371,24.8444846 78.9401715,24.1424309 C78.7187762,23.948396 78.4832115,23.7755285 78.2582738,23.5867854 C77.5870032,23.0293759 76.9121901,22.4790223 76.2001827,21.9798233 C76.1541325,21.9480722 76.1045399,21.9198489 76.0584897,21.8880977 C70.610393,18.0991247 64.0659466,16 57.3408415,16 C47.5711077,15.9894357 38.401798,20.2970113 32.1867878,27.8132191 Z" id="Path"/>            </g>        </g>    </g></g><g id="SvgjsG15229" featureKey="kZnDdN-0" transform="matrix(4.542151087237218,0,0,4.542151087237218,105.91206142244681,-10.344477172322431)" fill="#000"><path d="M12.76 18.5 c-1.28 1.1 -2.9 1.7 -4.7 1.7 c-3.64 0 -7.16 -2.96 -7.16 -7.2 s3.52 -7.2 7.16 -7.2 c1.78 0 3.38 0.6 4.64 1.66 l-1.02 1.16 c-0.98 -0.78 -2.24 -1.24 -3.5 -1.24 c-2.86 0 -5.56 2.32 -5.56 5.62 s2.7 5.62 5.56 5.62 c1.28 0 2.56 -0.48 3.54 -1.28 z M21.520000000000003 5.800000000000001 c3.64 0 7.16 2.96 7.16 7.2 s-3.52 7.2 -7.16 7.2 c-3.66 0 -7.16 -2.96 -7.16 -7.2 s3.5 -7.2 7.16 -7.2 z M21.520000000000003 18.62 c2.74 0 5.44 -2.32 5.44 -5.62 s-2.7 -5.62 -5.44 -5.62 c-2.76 0 -5.44 2.32 -5.44 5.62 s2.68 5.62 5.44 5.62 z M41.06 20 l-1.8 0 l-3.54 -5.04 l-0.38 0 l-2.9 0 l0 5.04 l-1.66 0 l0 -14 l4.56 0 c3.14 0 4.96 1.92 4.96 4.52 c0 2 -1.08 3.56 -3 4.16 z M32.440000000000005 7.5600000000000005 l0 5.92 l2.86 0 c2.02 0 3.34 -1.04 3.34 -2.96 c0 -1.94 -1.32 -2.96 -3.34 -2.96 l-2.86 0 z M54.18000000000001 20 l-1.44 -3.3 l-7.48 0 l-1.44 3.3 l-1.76 0 l6.24 -14 l1.38 0 l6.26 14 l-1.76 0 z M45.88 15.3 l6.24 0 l-3.12 -7.12 z"/></g>
			</g>
		</svg>
	